<svg xmlns="http://www.w3.org/2000/svg" width="23" height="23" fill="none" viewBox="0 0 23 23"><path fill="#fff" d="M22.5283 11.887C22.5228 14.5829 21.5334 17.184 19.7459 19.2021C17.9584 21.2201 15.4957 22.5162 12.8202 22.8471C12.7605 22.8529 12.7002 22.8464 12.6432 22.8278C12.5861 22.8093 12.5335 22.7791 12.4887 22.7393C12.4438 22.6994 12.4077 22.6507 12.3826 22.5962C12.3575 22.5417 12.3439 22.4826 12.3428 22.4227V14.4334H14.8891C15.0052 14.4336 15.1201 14.41 15.2267 14.3641C15.3333 14.3182 15.4293 14.2508 15.5089 14.1663C15.5884 14.0818 15.6498 13.9819 15.6892 13.8727C15.7286 13.7635 15.7452 13.6474 15.7379 13.5315C15.7192 13.3121 15.6178 13.1079 15.4544 12.9602C15.2909 12.8125 15.0776 12.7323 14.8573 12.7358H12.3428V10.1894C12.3428 9.73919 12.5216 9.3074 12.84 8.98904C13.1583 8.67068 13.5901 8.49183 14.0404 8.49183H15.7379C15.854 8.49206 15.9689 8.46847 16.0755 8.42254C16.1821 8.3766 16.2781 8.30929 16.3577 8.22477C16.4372 8.14025 16.4986 8.0403 16.538 7.93112C16.5774 7.82194 16.594 7.70583 16.5867 7.58999C16.568 7.37051 16.4666 7.16632 16.3032 7.01863C16.1397 6.87094 15.9264 6.79075 15.7061 6.79424H14.0404C13.1399 6.79424 12.2763 7.15195 11.6396 7.78867C11.0029 8.42538 10.6452 9.28896 10.6452 10.1894V12.7358H8.0988C7.98272 12.7356 7.86784 12.7592 7.76124 12.8051C7.65464 12.851 7.5586 12.9183 7.47905 13.0029C7.39949 13.0874 7.33812 13.1873 7.29873 13.2965C7.25933 13.4057 7.24275 13.5218 7.25 13.6376C7.26878 13.8571 7.37011 14.0613 7.53355 14.209C7.69699 14.3567 7.91037 14.4369 8.13063 14.4334H10.6452V22.4227C10.6455 22.4821 10.6333 22.541 10.6093 22.5955C10.5854 22.65 10.5503 22.6988 10.5063 22.7388C10.4622 22.7788 10.4103 22.8091 10.3538 22.8278C10.2973 22.8464 10.2375 22.853 10.1783 22.8471C4.5763 22.168 0.247457 17.2981 0.470265 11.4732C0.595338 8.59664 1.83985 5.88288 3.93815 3.91121C6.03646 1.93954 8.82233 0.866153 11.7011 0.920156C14.5799 0.974159 17.3236 2.15128 19.3465 4.20026C21.3693 6.24924 22.5112 9.00776 22.5283 11.887Z"/></svg>