<svg xmlns="http://www.w3.org/2000/svg" width="23" height="23" fill="none" viewBox="0 0 23 23"><path fill="#fff" d="M11.6783 15.3927C13.6163 15.3927 15.1873 13.8217 15.1873 11.8837C15.1873 9.94577 13.6163 8.37476 11.6783 8.37476C9.74039 8.37476 8.16937 9.94577 8.16937 11.8837C8.16937 13.8217 9.74039 15.3927 11.6783 15.3927Z"/><path fill="#fff" d="M16.5031 0.918213H6.8535C5.22489 0.918213 3.66299 1.56517 2.51139 2.71677C1.35979 3.86837 0.71283 5.43028 0.71283 7.05888V16.7085C0.71283 18.3371 1.35979 19.899 2.51139 21.0506C3.66299 22.2022 5.22489 22.8492 6.8535 22.8492H16.5031C18.1317 22.8492 19.6936 22.2022 20.8452 21.0506C21.9968 19.899 22.6438 18.3371 22.6438 16.7085V7.05888C22.6438 5.43028 21.9968 3.86837 20.8452 2.71677C19.6936 1.56517 18.1317 0.918213 16.5031 0.918213V0.918213ZM11.6783 17.1471C10.6373 17.1471 9.61967 16.8384 8.75411 16.2601C7.88854 15.6817 7.21391 14.8597 6.81554 13.8979C6.41716 12.9362 6.31293 11.8779 6.51602 10.8569C6.71911 9.83585 7.2204 8.89799 7.95651 8.16189C8.69261 7.42578 9.63046 6.92449 10.6515 6.7214C11.6725 6.51831 12.7308 6.62254 13.6925 7.02092C14.6543 7.4193 15.4763 8.09392 16.0547 8.95949C16.6331 9.82506 16.9417 10.8427 16.9417 11.8837C16.9417 13.2796 16.3872 14.6184 15.4001 15.6055C14.413 16.5926 13.0743 17.1471 11.6783 17.1471ZM17.3804 7.4975C17.1201 7.4975 16.8657 7.42033 16.6493 7.27574C16.4329 7.13115 16.2643 6.92564 16.1647 6.6852C16.0651 6.44476 16.039 6.18019 16.0898 5.92493C16.1406 5.66968 16.2659 5.43522 16.4499 5.25119C16.6339 5.06717 16.8684 4.94184 17.1237 4.89107C17.3789 4.8403 17.6435 4.86636 17.8839 4.96595C18.1244 5.06554 18.3299 5.2342 18.4745 5.45059C18.619 5.66699 18.6962 5.92139 18.6962 6.18165C18.6962 6.53063 18.5576 6.86533 18.3108 7.1121C18.064 7.35887 17.7294 7.4975 17.3804 7.4975Z"/></svg>