<svg xmlns="http://www.w3.org/2000/svg" width="23" height="23" fill="none" viewBox="0 0 23 23"><path fill="#fff" d="M20.3877 0.918213H1.96572C1.5004 0.918213 1.05415 1.10306 0.725117 1.43209C0.396089 1.76112 0.211243 2.20737 0.211243 2.67269V21.0947C0.211243 21.56 0.396089 22.0063 0.725117 22.3353C1.05415 22.6643 1.5004 22.8492 1.96572 22.8492H20.3877C20.8531 22.8492 21.2993 22.6643 21.6283 22.3353C21.9574 22.0063 22.1422 21.56 22.1422 21.0947V2.67269C22.1422 2.20737 21.9574 1.76112 21.6283 1.43209C21.2993 1.10306 20.8531 0.918213 20.3877 0.918213ZM7.66777 17.1471C7.66777 17.3798 7.57535 17.6029 7.41083 17.7674C7.24632 17.9319 7.02319 18.0244 6.79053 18.0244C6.55787 18.0244 6.33475 17.9319 6.17023 17.7674C6.00572 17.6029 5.91329 17.3798 5.91329 17.1471V10.1292C5.91329 9.89656 6.00572 9.67343 6.17023 9.50892C6.33475 9.3444 6.55787 9.25198 6.79053 9.25198C7.02319 9.25198 7.24632 9.3444 7.41083 9.50892C7.57535 9.67343 7.66777 9.89656 7.66777 10.1292V17.1471ZM6.79053 7.93612C6.53028 7.93612 6.27587 7.85895 6.05948 7.71436C5.84309 7.56977 5.67443 7.36426 5.57484 7.12382C5.47524 6.88338 5.44919 6.6188 5.49996 6.36355C5.55073 6.1083 5.67605 5.87384 5.86008 5.68981C6.04411 5.50579 6.27857 5.38046 6.53382 5.32969C6.78907 5.27892 7.05365 5.30498 7.29409 5.40457C7.53453 5.50416 7.74004 5.67282 7.88463 5.88921C8.02922 6.10561 8.10639 6.36001 8.10639 6.62026C8.10639 6.96925 7.96776 7.30395 7.72098 7.55072C7.47421 7.79749 7.13952 7.93612 6.79053 7.93612ZM17.3174 17.1471C17.3174 17.3798 17.225 17.6029 17.0605 17.7674C16.8959 17.9319 16.6728 18.0244 16.4402 18.0244C16.2075 18.0244 15.9844 17.9319 15.8199 17.7674C15.6553 17.6029 15.5629 17.3798 15.5629 17.1471V13.1996C15.5629 12.6179 15.3319 12.0601 14.9206 11.6488C14.5093 11.2375 13.9515 11.0065 13.3698 11.0065C12.7882 11.0065 12.2304 11.2375 11.8191 11.6488C11.4078 12.0601 11.1767 12.6179 11.1767 13.1996V17.1471C11.1767 17.3798 11.0843 17.6029 10.9198 17.7674C10.7553 17.9319 10.5321 18.0244 10.2995 18.0244C10.0668 18.0244 9.8437 17.9319 9.67919 17.7674C9.51467 17.6029 9.42225 17.3798 9.42225 17.1471V10.1292C9.42164 9.91333 9.50067 9.7048 9.6442 9.54353C9.78773 9.38227 9.98569 9.27959 10.2002 9.25515C10.4147 9.23071 10.6307 9.28623 10.8068 9.41108C10.9829 9.53593 11.1068 9.72135 11.1548 9.93184C11.7484 9.52946 12.4404 9.29637 13.1564 9.25761C13.8725 9.21884 14.5856 9.37586 15.2191 9.7118C15.8527 10.0477 16.3828 10.5499 16.7524 11.1644C17.1221 11.7789 17.3174 12.4824 17.3174 13.1996V17.1471Z"/></svg>