<svg xmlns="http://www.w3.org/2000/svg" width="25" height="23" fill="none" viewBox="0 0 25 23"><path fill="#fff" d="M24.6989 5.22454L21.2494 8.66266C20.5641 16.6469 13.8249 22.8492 5.77215 22.8492C4.11591 22.8492 2.74523 22.5865 1.7058 22.0725C0.871971 21.6498 0.529301 21.2044 0.437922 21.0673C0.362317 20.9525 0.313599 20.8221 0.295398 20.6858C0.277197 20.5495 0.289981 20.4109 0.332799 20.2802C0.375617 20.1496 0.447365 20.0303 0.542696 19.9312C0.638028 19.8321 0.754485 19.7558 0.883393 19.708C0.906237 19.6966 3.60191 18.6686 5.34952 16.6925C4.2657 15.9208 3.3131 14.9798 2.52821 13.9055C0.963349 11.7809 -0.692888 8.09154 0.300854 2.58598C0.332093 2.4223 0.406955 2.2701 0.517533 2.14545C0.62811 2.0208 0.770299 1.92833 0.929082 1.8778C1.08837 1.82564 1.25894 1.8183 1.42212 1.85657C1.5853 1.89485 1.73481 1.97727 1.85429 2.09482C1.88856 2.14051 5.69219 5.88703 10.3411 7.0978V6.40103C10.3456 5.67653 10.4927 4.96 10.7741 4.29237C11.0555 3.62473 11.4657 3.01906 11.9812 2.50995C12.4966 2.00083 13.1074 1.59822 13.7784 1.32513C14.4495 1.05204 15.1678 0.913806 15.8923 0.91832C16.8432 0.931882 17.7744 1.19152 18.5951 1.67194C19.4158 2.15236 20.0981 2.83718 20.5755 3.65968H24.0479C24.2283 3.65911 24.4048 3.71196 24.5552 3.81156C24.7056 3.91116 24.8232 4.05306 24.8931 4.21937C24.959 4.38816 24.9757 4.57213 24.9413 4.75002C24.9069 4.9279 24.8229 5.09242 24.6989 5.22454Z"/></svg>