<svg xmlns="http://www.w3.org/2000/svg" width="29" height="23" fill="none" viewBox="0 0 29 23"><path fill="#fff" d="M28.2865 4.59841C28.1714 4.13692 27.9462 3.7102 27.6301 3.35483C27.3139 2.99947 26.9164 2.72606 26.4714 2.55803C22.1904 0.905698 15.3557 0.918216 14.9802 0.918216C14.6047 0.918216 7.77 0.905698 3.48896 2.55803C3.04401 2.72606 2.64643 2.99947 2.33031 3.35483C2.01419 3.7102 1.78895 4.13692 1.6739 4.59841C1.34844 5.83766 0.960388 8.11588 0.960388 11.8837C0.960388 15.6515 1.34844 17.9297 1.6739 19.169C1.78895 19.6305 2.01419 20.0572 2.33031 20.4126C2.64643 20.7679 3.04401 21.0413 3.48896 21.2094C7.59475 22.7991 14.0288 22.8492 14.8926 22.8492H15.0678C15.9315 22.8492 22.3656 22.7991 26.4714 21.2094C26.9164 21.0413 27.3139 20.7679 27.6301 20.4126C27.9462 20.0572 28.1714 19.6305 28.2865 19.169C28.6119 17.9297 29 15.6515 29 11.8837C29 8.11588 28.6119 5.83766 28.2865 4.59841ZM19.2612 12.2968L13.2527 16.3024C13.1731 16.3611 13.0763 16.3919 12.9774 16.3901C12.8944 16.387 12.8132 16.3656 12.7395 16.3275C12.6595 16.2859 12.5926 16.2229 12.5462 16.1455C12.4998 16.0682 12.4757 15.9795 12.4766 15.8894V7.87804C12.4757 7.78786 12.4998 7.69918 12.5462 7.62185C12.5926 7.54451 12.6595 7.48154 12.7395 7.43992C12.8193 7.39734 12.9092 7.37718 12.9996 7.38159C13.09 7.38599 13.1774 7.41481 13.2527 7.46496L19.2612 11.4706C19.331 11.5146 19.3886 11.5755 19.4285 11.6478C19.4683 11.72 19.4892 11.8012 19.4892 11.8837C19.4892 11.9662 19.4683 12.0474 19.4285 12.1196C19.3886 12.1919 19.331 12.2528 19.2612 12.2968Z"/></svg>