<svg xmlns="http://www.w3.org/2000/svg" width="138" height="37" fill="none" viewBox="0 0 138 37"><g clip-path="url(#clip0_75_5)"><path fill="#fff" d="M27.1832 36.2459H20.6586L12.9973 23.041H5.95362V36.2459H0V-0.000123225H14.4974C16.0312 -0.0297667 17.5545 0.258635 18.9714 0.846906C20.3883 1.43518 21.6679 2.31056 22.7297 3.41789C25.0083 5.62736 26.1477 8.37146 26.1477 11.6502C26.1611 13.9206 25.4642 16.1384 24.1545 17.9931C22.8732 19.8713 21.0591 21.3229 18.9457 22.1612L27.1832 36.2459ZM14.4974 5.59275H5.95362V17.7076H14.4974C15.257 17.7189 16.0102 17.5677 16.7067 17.2642C17.4031 16.9607 18.0267 16.512 18.5356 15.948C19.6351 14.7911 20.2314 13.2457 20.194 11.6502C20.2305 10.0548 19.6343 8.50974 18.5356 7.35237C18.0267 6.78838 17.4031 6.33963 16.7067 6.03616C16.0102 5.7327 15.257 5.58152 14.4974 5.59275Z"/><path fill="#fff" d="M58.563 23.3577C58.563 19.5599 59.788 16.3322 62.2379 13.6746C64.6879 11.017 67.7945 9.68823 71.5577 9.68823C75.596 9.68823 78.8756 10.9997 81.3965 13.6227C83.9537 16.2457 85.2306 19.4734 85.2271 23.3058C85.2271 27.2403 83.9295 30.5026 81.3342 33.0927C78.7095 35.6464 75.3096 36.9233 71.1346 36.9233C66.0946 36.9233 62.3141 35.0426 59.7932 31.2811L64.4024 28.5872C65.9233 30.7292 68.15 31.7993 71.0827 31.7976C73.2576 31.7976 75.0786 31.263 76.5458 30.1937C78.0131 29.1244 78.9569 27.6244 79.3773 25.6935H58.768C58.6386 24.9214 58.5701 24.1404 58.563 23.3577ZM76.7872 16.4724C75.403 15.3321 73.6772 14.762 71.6096 14.762C69.8492 14.7145 68.1307 15.3033 66.7693 16.4204C65.4405 17.5243 64.5858 19.0945 64.2052 21.1309H79.4292C79.0503 19.155 78.1696 17.6004 76.7872 16.4672V16.4724Z"/><path fill="#fff" d="M55.0412 25.6934H34.4345C34.8463 27.626 35.7866 29.1278 37.2556 30.1988C38.7245 31.2698 40.5412 31.8045 42.7057 31.8027C45.6471 31.8027 47.873 30.7326 49.3834 28.5924L53.9927 31.2863C51.4718 35.0477 47.6922 36.9285 42.6538 36.9285C38.4754 36.9285 35.0747 35.6516 32.4517 33.0978C29.8564 30.5025 28.5587 27.2402 28.5587 23.3109C28.5587 19.4802 29.8365 16.2526 32.392 13.6278C34.9094 11.0066 38.1882 9.69509 42.2282 9.69336C45.9914 9.69336 49.0979 11.0222 51.5479 13.6797C53.9979 16.3373 55.2315 19.5633 55.2488 23.3576C55.2407 24.1404 55.1713 24.9214 55.0412 25.6934ZM34.3826 21.1257H49.604C49.2251 19.0875 48.3713 17.5173 47.0425 16.4152C45.6803 15.2977 43.9609 14.7089 42.1996 14.7568C40.1234 14.7568 38.3975 15.3269 37.022 16.4671C35.6465 17.6073 34.7667 19.1602 34.3826 21.1257Z"/><path fill="#fff" d="M95.7381 10.3552V14.7049C97.1517 11.4954 99.8101 9.89062 103.713 9.89062V15.9481C101.723 15.7774 99.7368 16.3302 98.1206 17.5052C96.5322 18.642 95.7381 20.54 95.7381 23.1993V36.2485H90.1452V10.3552H95.7381Z"/><path fill="#fff" d="M111.946 17.5028C111.946 18.2969 112.36 18.944 113.189 19.4441C114.018 19.9441 115.229 20.4182 116.822 20.8663C117.891 21.1043 118.946 21.3989 119.983 21.7487C120.98 22.1052 121.937 22.5644 122.838 23.119C123.806 23.6918 124.603 24.5148 125.143 25.5015C125.687 26.5645 125.939 27.7531 125.872 28.9455C125.872 31.4283 124.906 33.3782 122.973 34.7953C121.041 36.2123 118.641 36.92 115.774 36.9182C113.22 36.9182 111.029 36.3836 109.2 35.3143C107.422 34.3023 106.022 32.739 105.211 30.8608L110.041 28.0657C110.906 30.5485 112.821 31.7908 115.787 31.7925C118.728 31.7925 120.199 30.8262 120.199 28.8936C120.199 27.48 118.559 26.3752 115.281 25.5794C114.211 25.3273 113.155 25.0189 112.117 24.6554C111.149 24.2857 110.214 23.8351 109.322 23.3085C108.341 22.7628 107.532 21.9538 106.986 20.9727C106.433 19.9375 106.173 18.771 106.233 17.5988C106.233 15.218 107.131 13.3027 108.927 11.8528C110.758 10.4029 113.018 9.67794 115.709 9.67794C117.719 9.63883 119.703 10.1322 121.46 11.1079C123.103 12.0255 124.443 13.4017 125.317 15.0684L120.593 17.7078C119.728 15.7406 118.105 14.7569 115.725 14.7569C114.766 14.7161 113.818 14.9697 113.007 15.4836C112.67 15.6993 112.396 15.9989 112.209 16.3528C112.023 16.7068 111.933 17.1031 111.946 17.5028Z"/><path fill="#20F2FF" d="M133.848 36.6587C136.141 36.6587 138 34.7996 138 32.5062C138 30.2129 136.141 28.3538 133.848 28.3538C131.554 28.3538 129.695 30.2129 129.695 32.5062C129.695 34.7996 131.554 36.6587 133.848 36.6587Z"/></g><defs><clipPath id="clip0_75_5"><rect width="138" height="36.918" fill="#fff"/></clipPath></defs></svg>